<svg width="537" height="556" xmlns="http://www.w3.org/2000/svg" xmlns:xlink="http://www.w3.org/1999/xlink" xml:space="preserve" overflow="hidden"><defs><clipPath id="clip0"><rect x="481" y="355" width="537" height="556"/></clipPath><clipPath id="clip1"><path d="M515.132 588.945 748.477 355.6 981.823 588.945 748.477 822.29Z" fill-rule="evenodd" clip-rule="evenodd"/></clipPath><clipPath id="clip2"><path d="M515.132 588.945 748.477 355.6 981.823 588.945 748.477 822.29Z" fill-rule="evenodd" clip-rule="evenodd"/></clipPath><clipPath id="clip3"><path d="M515.132 588.945 748.477 355.6 981.823 588.945 748.477 822.29Z" fill-rule="evenodd" clip-rule="evenodd"/></clipPath></defs><g clip-path="url(#clip0)" transform="translate(-481 -355)"><path d="M749.48 459.5 749.5 459.5C749.5 531.215 807.703 589.351 879.5 589.351L879.5 749.5 619.5 749.5 619.5 588.951C686.81 588.951 742.172 537.855 748.829 472.377L749.48 459.5Z" stroke="#000000" stroke-width="6.875" stroke-miterlimit="8" fill="#FFCC00" fill-rule="evenodd"/><path d="M749.5 749.5 879.495 749.5 879.505 749.5 879.505 749.51 1009.5 879.5 879.505 879.5 879.495 879.5 749.5 879.5Z" stroke="#000000" stroke-width="6.875" stroke-miterlimit="8" fill="#FFCC00" fill-rule="evenodd"/><path d="M619.5 749.5 749.5 749.5 749.5 879.5 619.5 879.5 489.5 879.5Z" stroke="#000000" stroke-width="6.875" stroke-miterlimit="8" fill="#FFCC00" fill-rule="evenodd"/><g clip-path="url(#clip1)"><g clip-path="url(#clip2)"><g clip-path="url(#clip3)"><path d="M875.845 588.945C875.845 605.96 861.99 619.815 844.975 619.815L803.654 619.815C790.528 619.815 778.861 611.55 774.729 599.154L810.703 599.154C816.293 598.911 820.669 594.536 820.669 588.702 820.669 583.354 816.293 578.493 810.703 578.25L774.729 578.25C779.104 566.097 790.771 557.832 803.897 557.832L845.219 557.832C861.99 558.075 875.602 571.687 875.845 588.945ZM693.301 619.815 651.979 619.815C634.965 619.815 621.11 605.96 621.11 588.945 621.11 571.93 634.965 558.075 651.979 558.075L693.301 558.075C706.427 558.075 718.094 566.34 722.469 578.493L693.301 578.493C687.71 578.736 683.335 583.111 683.335 588.945 683.335 594.292 687.71 599.154 693.301 599.397L722.469 599.397C718.094 611.55 706.427 619.815 693.301 619.815ZM844.732 537.415 803.411 537.415C778.861 537.172 757.471 554.672 752.853 578.736L744.102 578.736C739.241 554.916 718.094 537.658 693.544 537.415L652.223 537.415C624.756 538.63 602.88 561.478 602.637 588.945 602.637 616.655 624.27 639.26 652.223 640.475L693.544 640.475C718.094 640.719 739.484 623.218 744.102 599.154L752.853 599.154C757.714 622.974 778.861 640.232 803.411 640.475L844.732 640.475C872.442 639.503 894.318 616.655 894.318 588.945 894.318 561.235 872.442 538.387 844.732 537.415L844.732 537.415Z" stroke="#000000" stroke-width="6.875" fill="#FFCC00"/></g></g></g><path d="M602 589.5C577.976 589.5 558.5 570.248 558.5 546.5" stroke="#000000" stroke-width="6.875" stroke-miterlimit="8" fill="none" fill-rule="evenodd"/><path d="M940.5 546.5C940.5 570.248 921.248 589.5 897.5 589.5" stroke="#000000" stroke-width="6.875" stroke-miterlimit="8" fill="none" fill-rule="evenodd"/></g></svg>